<svg width="200" height="240" viewBox="0 0 340 400" xmlns="http://www.w3.org/2000/svg">
  <defs>
    <linearGradient id="sg" x1="0%" y1="0%" x2="100%" y2="100%">
      <stop offset="0%" style="stop-color:#f0d060"/>
      <stop offset="55%" style="stop-color:#c9a84c"/>
      <stop offset="100%" style="stop-color:#7a5c10"/>
    </linearGradient>
    <linearGradient id="bl" x1="0%" y1="0%" x2="100%" y2="0%">
      <stop offset="0%" style="stop-color:#2255a0"/>
      <stop offset="100%" style="stop-color:#4a8ad4"/>
    </linearGradient>
    <linearGradient id="br" x1="0%" y1="0%" x2="100%" y2="0%">
      <stop offset="0%" style="stop-color:#4a8ad4"/>
      <stop offset="100%" style="stop-color:#1a3a8f"/>
    </linearGradient>
    <linearGradient id="hg" x1="0%" y1="0%" x2="0%" y2="100%">
      <stop offset="0%" style="stop-color:#2a5aaf"/>
      <stop offset="100%" style="stop-color:#0d1f5c"/>
    </linearGradient>
    <linearGradient id="rg" x1="0%" y1="0%" x2="0%" y2="100%">
      <stop offset="0%" style="stop-color:#f0d060;stop-opacity:0.5"/>
      <stop offset="100%" style="stop-color:#f0d060;stop-opacity:0"/>
    </linearGradient>
  </defs>
  <rect width="340" height="400" rx="20" fill="#0f2044"/>
  <!-- rays -->
  <g opacity="0.3">
    <polygon points="170,72 155,230 185,230" fill="url(#rg)"/>
    <polygon points="170,72 126,232 148,232" fill="url(#rg)" opacity="0.6"/>
    <polygon points="170,72 194,232 216,232" fill="url(#rg)" opacity="0.6"/>
  </g>
  <!-- star -->
  <g transform="translate(170,68)">
    <polygon points="0,-52 12,-17 50,-17 20,6 32,40 0,20 -32,40 -20,6 -50,-17 -12,-17" fill="url(#sg)" stroke="#7a5c10" stroke-width="1"/>
    <polygon points="0,-52 6,-16 0,-9 -6,-16" fill="rgba(255,255,255,0.4)"/>
  </g>
  <!-- book -->
  <g transform="translate(170,235)">
    <rect x="-3" y="-80" width="6" height="76" rx="1.5" fill="#c9a84c"/>
    <path d="M -3,-76 C -50,-74 -112,-58 -132,-32 L -128,10 C -108,-14 -48,-30 -3,0 Z" fill="url(#bl)" stroke="#1a2a6e" stroke-width="1"/>
    <line x1="-18" y1="-56" x2="-102" y2="-40" stroke="rgba(255,255,255,0.25)" stroke-width="1.4"/>
    <line x1="-18" y1="-40" x2="-98" y2="-26" stroke="rgba(255,255,255,0.18)" stroke-width="1.1"/>
    <path d="M 3,-76 C 50,-74 112,-58 132,-32 L 128,10 C 108,-14 48,-30 3,0 Z" fill="url(#br)" stroke="#1a2a6e" stroke-width="1"/>
    <line x1="18" y1="-56" x2="102" y2="-40" stroke="rgba(255,255,255,0.25)" stroke-width="1.4"/>
    <line x1="18" y1="-40" x2="98" y2="-26" stroke="rgba(255,255,255,0.18)" stroke-width="1.1"/>
    <ellipse cx="0" cy="10" rx="133" ry="14" fill="#0d1f5c"/>
  </g>
  <!-- hand -->
  <g transform="translate(170,315)">
    <path d="M -135,25 C -118,0 -68,-16 0,-18 C 68,-16 118,0 135,25 C 122,46 68,60 0,62 C -68,60 -122,46 -135,25 Z" fill="url(#hg)" stroke="#3a6abf" stroke-width="1.4"/>
    <path d="M -135,25 C -152,11 -158,-10 -140,-25 C -124,-38 -100,-30 -93,-16" fill="url(#hg)" stroke="#3a6abf" stroke-width="1.4"/>
    <path d="M 135,25 C 152,11 158,-10 140,-25 C 124,-38 100,-30 93,-16" fill="url(#hg)" stroke="#3a6abf" stroke-width="1.4"/>
  </g>
  <!-- text: PROVIDENCE -->
  <text x="170" y="362" text-anchor="middle" font-family="Georgia,'Times New Roman',serif" font-size="26" font-weight="700" letter-spacing="2" fill="#c9a84c">PROVIDENCE</text>
  <!-- text: TUTORIALS -->
  <text x="170" y="386" text-anchor="middle" font-family="Georgia,'Times New Roman',serif" font-size="16" font-weight="400" letter-spacing="5" fill="rgba(255,255,255,0.6)">TUTORIALS</text>
</svg>
